All The Episodes of Naruto Shippuden Season 1 (Ep 1-32) at 480p Video Quality :)

Please seed after you download
--------------------------------------------------------------------------------

Info
---------------------------------------------------------------------------------

Video
------

Video
ID                                       : 1
Format                                   : AVC
Format/Info                              : Advanced Video Codec
Format profile                           : High@L3.0
Format settings, CABAC                   : Yes
Format settings, ReFrames                : 6 frames
Codec ID                                 : avc1
Codec ID/Info                            : Advanced Video Coding
Duration                                 : 46mn 39s
Bit rate                                 : 192 Kbps
Maximum bit rate                         : 1 465 Kbps
Width                                    : 640 pixels
Height                                   : 480 pixels
Display aspect ratio                     : 4:3
Frame rate mode                          : Constant
Frame rate                               : 23.976 fps
Color space                              : YUV
Chroma subsampling                       : 4:2:0
Bit depth                                : 8 bits
Scan type                                : Progressive
Bits/(Pixel*Frame)                       : 0.026
Stream size                              : 64.1 MiB (59%)
Title                                    : Imported with GPAC 0.4.6-DEV (build 1)
Writing library                          : x264 core 92 r1510 33d382a

Audio
------

ID                                       : 2
Format                                   : AAC
Format/Info                              : Advanced Audio Codec
Format profile                           : LC
Codec ID                                 : 40
Duration                                 : 46mn 39s
Bit rate mode                            : Variable
Bit rate                                 : 128 Kbps
Maximum bit rate                         : 180 Kbps
Channel(s)                               : 2 channels
Channel positions                        : Front: L R
Sampling rate                            : 48.0 KHz
Compression mode                         : Lossy
Stream size                              : 42.7 MiB (40%)
Encoded date                             : UTC 2010-11-21 21:31:53
Tagged date                              : UTC 2010-11-21 21:31:53

----------------------------------------------------------------------------------

Thank you for downloading.

Enjoy watching :)

And Please seed.

Request any anime you want at
_______________________________

Cursator@ymail.com
___________________